{"accessors" : [{"bufferView" : 0, "byteOffset" : 0, "componentType" : 5123, "count" : 20334, "type" : "SCALAR", "max" : [15186], "min" : [0]}, {"bufferView" : 1, "byteOffset" : 0, "componentType" : 5126, "count" : 15187, "type" : "VEC3", "max" : [12.077638626098633, 12.081693649291992, 6], "min" : [-12.083045959472656, -12.081693649291992, 0], "name" : "POSITION"}, {"bufferView" : 1, "byteOffset" : 12, "componentType" : 5126, "count" : 15187, "type" : "VEC3", "max" : [1.0000044107437134, 1.0000038146972656, 1.0000044107437134], "min" : [-1.0000044107437134, -1.0000005960464478, -1.0000044107437134], "name" : "NORMAL"}], "asset" : {"generator" : "Aspose.3D 24.4.1", "version" : "2.0"}, "buffers" : [{"uri" : "data:application/octet-stream;base64,", "byteLength" : 405164}], "bufferViews" : [{"buffer" : 0, "byteOffset" : 0, "byteLength" : 40668, "target" : 34963}, {"buffer" : 0, "byteOffset" : 40672, "byteLength" : 364488, "byteStride" : 24, "target" : 34962}], "meshes" : [{"primitives" : [{"attributes" : {"POSITION" : 1, "NORMAL" : 2}, "indices" : 0, "mode" : 4}], "name" : ""}], "nodes" : [{"mesh" : 0, "name" : ""}], "scene" : 0, "scenes" : [{"nodes" : [0]}]}