{
  "accessors": [
    {
      "bufferView": 2,
      "componentType": 5126,
      "count": 10818,
      "max": [
        10.107192993164063,
        -0.8957805633544922,
        10.042078971862793
      ],
      "min": [
        -12.428558349609375,
        -30.832592010498047,
        -12.27038860321045
      ],
      "type": "VEC3"
    },
    {
      "bufferView": 2,
      "byteOffset": 129816,
      "componentType": 5126,
      "count": 10818,
      "max": [
        0.9999521374702454,
        0.9999364018440247,
        0.9996840953826904
      ],
      "min": [
        -0.9999023079872131,
        -0.9994711875915527,
        -0.9991689324378967
      ],
      "type": "VEC3"
    },
    {
      "bufferView": 3,
      "componentType": 5126,
      "count": 10818,
      "max": [
        1.0,
        0.9999997019767761,
        0.9723473787307739,
        -1.0
      ],
      "min": [
        -0.999998927116394,
        -0.9999986886978149,
        -0.9860551953315735,
        -1.0
      ],
      "type": "VEC4"
    },
    {
      "bufferView": 1,
      "componentType": 5126,
      "count": 10818,
      "max": [
        0.9996330142021179,
        0.9998779892921448
      ],
      "min": [
        0.00012199999764561653,
        0.0003659999929368496
      ],
      "type": "VEC2"
    },
    {
      "bufferView": 0,
      "componentType": 5125,
      "count": 30000,
      "type": "SCALAR"
    }
  ],
  "asset": {
    "extras": {
      "author": "Renafox (https://sketchfab.com/kryik1023)",
      "license": "CC-BY-4.0 (http://creativecommons.org/licenses/by/4.0/)",
      "source": "https://sketchfab.com/3d-models/project-cirno-fumo-3d-scan-efd2a7f4dbf048c1a18438db7f86c4b9",
      "title": "東方 Project - Cirno Fumo (3D scan)"
    },
    "generator": "Sketchfab-12.68.0",
    "version": "2.0"
  },
  "bufferViews": [
    {
      "buffer": 0,
      "byteLength": 120000,
      "name": "floatBufferViews",
      "target": 34963
    },
    {
      "buffer": 0,
      "byteLength": 86544,
      "byteOffset": 120000,
      "byteStride": 8,
      "name": "floatBufferViews",
      "target": 34962
    },
    {
      "buffer": 0,
      "byteLength": 259632,
      "byteOffset": 206544,
      "byteStride": 12,
      "name": "floatBufferViews",
      "target": 34962
    },
    {
      "buffer": 0,
      "byteLength": 173088,
      "byteOffset": 466176,
      "byteStride": 16,
      "name": "floatBufferViews",
      "target": 34962
    }
  ],
  "buffers": [
    {
      "byteLength": 639264,
      "uri": "scene.bin"
    }
  ],
  "images": [
    {
      "uri": "textures/cirno_low_Material_u1_v1_baseColor.jpeg"
    },
    {
      "uri": "textures/cirno_low_Material_u1_v1_metallicRoughness.png"
    },
    {
      "uri": "textures/cirno_low_Material_u1_v1_normal.png"
    }
  ],
  "materials": [
    {
      "doubleSided": true,
      "emissiveFactor": [
        1.0,
        1.0,
        1.0
      ],
      "emissiveTexture": {
        "index": 0
      },
      "name": "cirno_low_Material_u1_v1",
      "normalTexture": {
        "index": 2
      },
      "occlusionTexture": {
        "index": 1
      },
      "pbrMetallicRoughness": {
        "baseColorTexture": {
          "index": 0
        },
        "metallicFactor": 0.0,
        "metallicRoughnessTexture": {
          "index": 1
        },
        "roughnessFactor": 0.0
      }
    }
  ],
  "meshes": [
    {
      "name": "Object_0",
      "primitives": [
        {
          "attributes": {
            "NORMAL": 1,
            "POSITION": 0,
            "TANGENT": 2,
            "TEXCOORD_0": 3
          },
          "indices": 4,
          "material": 0,
          "mode": 4
        }
      ]
    }
  ],
  "nodes": [
    {
      "children": [
        1
      ],
      "matrix": [
        1.0,
        0.0,
        0.0,
        0.0,
        0.0,
        -1.0,
        -4.440892098500626e-16,
        0.0,
        0.0,
        4.440892098500626e-16,
        -1.0,
        0.0,
        0.0,
        -16.978366851806644,
        14.750071525573727,
        1.0
      ],
      "name": "Sketchfab_model"
    },
    {
      "children": [
        2
      ],
      "name": "cirno_low.obj.cleaner.materialmerger.gles"
    },
    {
      "mesh": 0,
      "name": "Object_2"
    }
  ],
  "samplers": [
    {
      "magFilter": 9729,
      "minFilter": 9987,
      "wrapS": 10497,
      "wrapT": 10497
    }
  ],
  "scene": 0,
  "scenes": [
    {
      "name": "Sketchfab_Scene",
      "nodes": [
        0
      ]
    }
  ],
  "textures": [
    {
      "sampler": 0,
      "source": 0
    },
    {
      "sampler": 0,
      "source": 1
    },
    {
      "sampler": 0,
      "source": 2
    }
  ]
}
